<svg width="22" height="20" viewBox="0 0 22 20" fill="none" xmlns="http://www.w3.org/2000/svg">
    <path
        d="M18 12L18 -3.49691e-07L22 0L22 12L18 12ZM14 -6.99382e-07C14.5304 -6.5301e-07 15.0391 0.210714 15.4142 0.585786C15.7893 0.960859 16 1.46957 16 2L16 12C16 12.55 15.78 13.05 15.41 13.41L8.83 20L7.77 18.94C7.5 18.67 7.33 18.3 7.33 17.89L7.36 17.57L8.31 13L2 13C1.46957 13 0.96086 12.7893 0.585787 12.4142C0.210715 12.0391 7.40433e-07 11.5304 7.86805e-07 11L9.61651e-07 9C9.8438e-07 8.74 0.0500002 8.5 0.14 8.27L3.16 1.22C3.46 0.499998 4.17 -1.55875e-06 5 -1.48619e-06L14 -6.99382e-07ZM14 2L4.97 2L2 9L2 11L10.79 11L9.66 16.32L14 11.97L14 2Z"
        fill="#999999" />
</svg>